<svg xmlns="http://www.w3.org/2000/svg" xmlns:xlink="http://www.w3.org/1999/xlink" width="1366" height="768" viewBox="0 0 1366 768">
  <defs>
    <clipPath id="clip-path">
      <rect id="Rechteck_233" data-name="Rechteck 233" width="1419.614" height="1447.366" transform="translate(0 0.004)" fill="none"/>
    </clipPath>
    <clipPath id="clip-path-2">
      <rect id="Rechteck_231" data-name="Rechteck 231" width="558.287" height="511.966" transform="translate(0 935.404)" fill="none"/>
    </clipPath>
    <clipPath id="clip-path-3">
      <rect id="Rechteck_232" data-name="Rechteck 232" width="138.884" height="279.517" transform="translate(189.399 838.698)" fill="none"/>
    </clipPath>
    <clipPath id="clip-bg1">
      <rect width="1366" height="768"/>
    </clipPath>
  </defs>
  <g id="bg1" clip-path="url(#clip-bg1)">
    <rect width="1366" height="768" fill="#fff"/>
    <g id="Gruppe_431" data-name="Gruppe 431" transform="matrix(0.839, -0.545, 0.545, 0.839, -781.868, 406.411)">
      <g id="Gruppe_430" data-name="Gruppe 430" transform="translate(29.128 -74.75)" clip-path="url(#clip-path)">
        <path id="Pfad_2220" data-name="Pfad 2220" d="M0,1258.005V1447.37s125.712-57.75,188.158-159.746c35.363-57.759,52.374-108.6,70.093-155.849,20.677-55.139,40.735-90.95,63.18-113.724,27.134-27.531,51.226-48.713,93.6-63.105,16.815-5.711,37.9-12.4,77.581-12.753,51.263-.458,69.08-6.023,87.5-15.942,17.029-9.169,29.757-18.421,38.919-33.077l-3.123-5.2s-8.8,16.865-35.8,29.071c-16.679,7.541-41.992,12.957-71.4,12.56-77.016-1.041-117.947,13.139-155.02,28.243-49.386,20.12-107.253,77.915-136.394,129.953,0,0-8.326-96.791,31.223-156.115S334.389,829.516,374.21,802.164l-2.877-2.659s-101.995,56.2-151.952,117.607c0,0,8.014-98.859-2.846-134.657l-4.827-.4s6.953,46.133,2.892,79.773c-3.24,26.834-5.744,42.5-11.945,68.557-4.118,17.3-26.986,59.583-28.027,88.725,0,0-37.363-66.962-95.177-83.438S.017,927.593.017,927.593v6.783s54.923-12.06,104.88,27.489,60.365,81.179,60.365,81.179,10.407,36.427-22.9,105.118S25.2,1256.486,0,1258.005" fill="#6e3500"/>
        <g id="Gruppe_426" data-name="Gruppe 426" opacity="0.4" style="mix-blend-mode: multiply;isolation: isolate">
          <g id="Gruppe_425" data-name="Gruppe 425">
            <g id="Gruppe_424" data-name="Gruppe 424" clip-path="url(#clip-path-2)">
              <path id="Pfad_2221" data-name="Pfad 2221" d="M403.28,951.835c-40,16-91.708,47.641-121.484,95.281-49.789,79.663-66.248,160.631-126.248,234.631C117.538,1329.639,32.872,1386.557,0,1381.813v65.557s125.713-57.75,188.159-159.745c35.363-57.76,52.373-108.6,70.092-155.85,20.677-55.139,40.736-90.95,63.18-113.724,27.133-27.531,51.225-48.713,93.6-63.105,16.816-5.711,37.9-12.4,77.582-12.753,32.371-.289,51.4-2.617,65.671-6.789-59.307,2.188-99.657-5.146-155.007,16.431" fill="#6e3500"/>
            </g>
          </g>
        </g>
        <g id="Gruppe_429" data-name="Gruppe 429" opacity="0.4" style="mix-blend-mode: multiply;isolation: isolate">
          <g id="Gruppe_428" data-name="Gruppe 428">
            <g id="Gruppe_427" data-name="Gruppe 427" clip-path="url(#clip-path-3)">
              <path id="Pfad_2222" data-name="Pfad 2222" d="M273,879.823c-7,7-11.488,17.544-18,25-24.416,27.956-53,92.271-56.574,123.237-2.292,19.869-11.426,57.763-8.426,78.763,1,4,1,8,3,11,1,1,6,0,7-2,5.936-12.531,11.434-25.062,16.786-37.593-.919-25.865-.3-98.494,31.739-146.547a502.106,502.106,0,0,1,79.76-92.984c-13.323,7.123-24.629,17.8-39.285,25.124-6,4-11,10-16,16" fill="#6e3500"/>
            </g>
          </g>
        </g>
        <path id="Pfad_2223" data-name="Pfad 2223" d="M393.78,1142.346s-13.059,15.984-38.613,34.008c-17,11.992-42.031,25.067-67.666,32.935a183.8,183.8,0,0,1-64.25,8.068l-17.85,35.7s54.924-6.865,118.085-42.566,74.191-65.311,74.191-65.311Z" fill="#6e3500"/>
        <path id="Pfad_2224" data-name="Pfad 2224" d="M416.452,1172.811s-17.358,17.713-37.9,21.255-27.986-2.48-27.986-2.48l-9.919,6.023a67.027,67.027,0,0,0,42.156,1.062c22.672-7.085,37.9-23.735,37.9-23.735s-.708-3.188-4.251-2.125" fill="#6e3500"/>
        <path id="Pfad_2225" data-name="Pfad 2225" d="M339.579,1186.627s-13.107-26.215,3.188-53.492c0,0,1.417-.709,3.189,1.417,0,0-6.181,14.53-5.669,26.569.709,16.65,8.148,20.546,8.148,20.546Z" fill="#6e3500"/>
        <path id="Pfad_2226" data-name="Pfad 2226" d="M543.629,929.794s-8.148-4.6-4.251-26.923a97.131,97.131,0,0,1,15.587-37.9s3.188-.355,3.543,2.479c0,0-10.628,15.588-13.108,31.883a48.093,48.093,0,0,0,4.6,28.7Z" fill="#6e3500"/>
        <path id="Pfad_2227" data-name="Pfad 2227" d="M632.192,930.857s-8.5,7.085-28.34,6.731-31.174-9.211-31.174-9.211l-8.5,4.251s11.69,12.045,38.259,10.274,31.528-8.857,31.528-8.857a9.34,9.34,0,0,0-1.771-3.188" fill="#6e3500"/>
        <path id="Pfad_2228" data-name="Pfad 2228" d="M327.954,782.455s-31.776,34.592-23.344,61.935l-9.129,5.868s-13.694-26.083,29.344-69.772Z" fill="#6e3500"/>
        <path id="Pfad_2229" data-name="Pfad 2229" d="M250.323,784.466c0,1.956-6.034,30.57-29.831,44.274l-1.086-6.622s20-9.028,29.778-38.372Z" fill="#6e3500"/>
        <path id="Pfad_2230" data-name="Pfad 2230" d="M174.3,784.868a66.509,66.509,0,0,0,5.631,28.961c7.107,16.254,23.879,33.644,36.953,32.974v12.389s-19.432-8.645-30.517-23.643-17.085-33.74-14.477-50.694Z" fill="#6e3500"/>
        <path id="Pfad_2231" data-name="Pfad 2231" d="M46.387,860.039S47.9,881.3,56.168,901.772c6.462,16,17.982,30.83,30,39.125l-21.519-7.173s-28.039-39.777-25.431-74.337c0,0,7.173-4.565,7.173.652" fill="#6e3500"/>
        <path id="Pfad_2232" data-name="Pfad 2232" d="M73.774,859.387s3.26,37.821-20.214,40.429a14.53,14.53,0,0,0,4.564,8.477s11.1-1.671,16.954-22.171c5.217-18.258,1.3-26.083,1.3-26.083Z" fill="#6e3500"/>
        <path id="Pfad_2233" data-name="Pfad 2233" d="M251.88,996.046c9.9-7.334,19.587-16.468,31.839-17.766,6.718-6.431,13.572-12.959,21.9-17.108,10.806-5.386,23.2-6.341,35.247-7.2,5.572-.4,11.285-.783,16.646.788s10.381,5.537,11.577,10.994c2.139,9.76-7.845,17.345-13.28,25.729-8.755,13.5-5.791,31.06-4.415,47.1.5,5.792-.34,13.253-5.91,14.917-4.346,1.3-8.925-2.358-10.284-6.685s-.373-9.006.7-13.414c2.159-8.909,4.649-18.005,3.565-27.107s-6.743-18.362-15.638-20.576c-11.928-2.968-20.423,9.91-30.824,16.46-29.879,18.814-21.788,30.582-35.327,46.053-10.106,11.549-29.963,3.632-30.972,38.233-.144,4.958-2.916,9.668-6.082,13.486s-14.7,8.207-11.976-6.32c-4.266-17.519-15.319-34.71-.908-60.834,3.507-6.359-7.692-14.651-4.633-21.238,5.22-11.235,11.486-7.587,20.027-6.152,10.518,1.768,20.447-3.2,28.758-9.353" fill="#ebedeb"/>
        <path id="Pfad_2234" data-name="Pfad 2234" d="M227.127,1019.9c-11.173,12.769-19.154,27.134-15.961,44.691,1.6,3.193,7.98,4.789,11.173,3.193,7.98-4.789,6.384-19.154,12.769-23.942,6.384-6.385,17.557-9.577,23.941-17.557,7.954-15.024,27.75-18.309,37.072-33.5,12.285-20.02,23.7-19.372,37.946-14.385,1.6,0,3.193,7.98,9.577,6.384,4.788-1.6,18.451-10.871,18.451-15.659,2.228-8.356-4.1-12.285-10.7-15.413a75.464,75.464,0,0,0-10.529.253c-12.043.861-24.442,1.816-35.247,7.2-8.323,4.148-15.177,10.677-21.9,17.107-12.252,1.3-21.938,10.433-31.839,17.767-8.311,6.155-18.24,11.121-28.758,9.353-.866-.145-1.7-.315-2.523-.488,1.795,5.232,10.391,8.556,6.528,14.993" fill="#fff"/>
        <path id="Pfad_2235" data-name="Pfad 2235" d="M231.885,1219.839c5.755-1.08,11.683.567,17.181-1.446a63.7,63.7,0,0,0,4.447,25.315,18.67,18.67,0,0,0,5.661-21.839c8.843,1.79,14.675-10.241,23.582-11.675,3.26-.525,6.559.459,9.859.587,6.541.253,12.692-2.835,18.506-5.843l22.911-11.856c2.337-1.209,4.895-2.679,5.623-5.207,1.227-4.265-3.119-3.884-7.536-3.455s-11.448,8.948-15.435,10.9c-12.454,6.083-24.687-6.7-38.453-8.309-13.183-1.541-32.369,1.045-40.541,14.665-22.7,6.356-15.436,19.975-5.805,18.167" fill="#ebedeb"/>
        <path id="Pfad_2236" data-name="Pfad 2236" d="M358.451,1195.316s2.724-10.9,8.172-10.9-.908,9.988,9.079,6.356,6.356-3.632,12.712-5.448,9.08-5.448,11.8-1.816.908,8.172-9.08,9.988-25.423,9.988-32.687,1.816" fill="#ebedeb"/>
        <path id="Pfad_2237" data-name="Pfad 2237" d="M588.168,919.292c-6.383,9.679-16.467,1.764-16.569,7.806-.123,7.319,2.949,7.629,8.4,7.629s5.719-1.44,9.351,2.192,8.809,4.164,17.888,2.348,8.2.25,13.643-3.382c2.723-1.815,5.638.441,6.547-1.034s-.11-4.025-4.652-4.48c-9.079-.908-3.25,2.132-16.713,3.1-6.689.482-7.418-6.522-9.477-9.649-4.652-7.064-8.415-4.532-8.415-4.532" fill="#ebedeb"/>
        <path id="Pfad_2238" data-name="Pfad 2238" d="M122.143,947.633c6.287,2.353,12.491,5.621,19.2,5.62,6.791,0,13.056-3.344,19.263-6.1,4.625-2.054,9.505-3.844,14.565-3.869s10.374,2,13.175,6.214c3.53,5.311,2.281,12.339.9,18.565L178.781,1015.2c-.69,3.109-1.9,6.775-4.985,7.547-4.741,1.184-7.371-5.18-8.434-9.95-2-8.988-4.116-19.505-13.317-19.5-3.476,0-11.548,5.575-12.6-11.1-.6-9.508-13.868-18.859-22.8-22.2-7.861-2.939-10.505-4.367-11.4-14.1-2.1-3.6,9.87-.89,16.894,1.739" fill="#ebedeb"/>
        <path id="Pfad_2239" data-name="Pfad 2239" d="M142.532,967.232c9.577-9.577,20.63-2.778,31.8-7.566,0,4.788-4.669,15.547-3.073,20.335,2.552,4.658,6.408,1.6,6.385-1.6-.188-25.508,10.746-16.136,7.6-32.058a17.249,17.249,0,0,0-10.075-3.063c-5.061.026-9.941,1.816-14.566,3.87-6.207,2.755-12.472,6.1-19.263,6.1-6.713,0-12.917-3.267-19.2-5.62a71.106,71.106,0,0,0-7.513-2.307c5.713,12.036,21.84,9.782,27.9,21.906" fill="#fff"/>
        <path id="Pfad_2240" data-name="Pfad 2240" d="M290.76,847.176c3.081.387,10.385,1.458,3.173,5.427-1.5-.6-9.6,1.8-11.7,8.4-.728,2.288-5.612,7.64-7.4,11.39-5.754,12.063-16.71,8.179-27.4,16.207-5.128,3.852-6.052,10.424-9.9,15.6-4.171,5.609-11.674,9.109-11.422,16.056.165,4.539,1.608,9.231-1.28,13.372a5.034,5.034,0,0,1-6.826,1.54c-2.329-1.577.686-9.324.929-12.07,1.545-17.426,8.988-16.091,10.2-27,.9-8.1,3.427-15.718,11.4-21,10.961-7.258,17.7-14.4,30.9-14.7,6.966-.159,6.93-14.763,19.325-13.227" fill="#ebedeb"/>
        <path id="Pfad_2241" data-name="Pfad 2241" d="M25.314,918.846c19.908,7.963,14.6-5.309,28.16-.712,4.119,1.4,10.119,8.945,10.679,13.662.375,3.151-4.059,3.2-4.321,6.091-.655,7.225-2.468,14.667-.3,21.589-1.4,3.168-6.63,2.493-8.43-.465s-1.126-6.762-.084-10.064,2.416-6.7,1.833-10.113c-1.094-6.4-8.642-9.746-15.125-9.327-8.228.533-21.706,1.284-29.669-2.7-2.655-7.963,9.763-10.959,17.254-7.963" fill="#ebedeb"/>
        <path id="Pfad_2242" data-name="Pfad 2242" d="M224.837,908.225s5.86-6.593,6.349-11.965.488-8.3,4.151-13.674,4.395-6.593,7.814-8.058,10.744-3.907,13.43-6.837,4.639-4.4,9.034-4.64,10.989-3.174,10.256-1.221,0,3.663-6.1,6.1-3.175-2.2-10.744,4.639-9.768,5.861-10.745,9.279-6.837,0-8.058,3.419-1.953,4.151-3.418,8.3a64.292,64.292,0,0,1-2.686,7.081c-1.221,2.686-1.465,5.128-3.419,5.861s-5.372,9.523-7.325,8.79,1.465-7.081,1.465-7.081" fill="#fff"/>
      </g>
    </g>
    <rect id="Rechteck_675" data-name="Rechteck 675" width="1392.109" height="768" transform="translate(-0.108 0.167)" fill="#1d1b2a"/>
    <ellipse id="Ellipse_480" data-name="Ellipse 480" cx="1281" cy="244" rx="1281" ry="244" transform="translate(-7 559)" fill="#f7edf0"/>
  </g>
</svg>
